<?xml version="1.0" encoding="UTF-8" standalone="no"?>
<!-- Created with Inkscape (http://www.inkscape.org/) -->

<svg
   width="254"
   height="254"
   viewBox="0 0 67.204168 67.204168"
   version="1.1"
   id="svg5"
   inkscape:version="1.2.1 (9c6d41e410, 2022-07-14)"
   sodipodi:docname="Logos.svg"
   inkscape:export-filename="Home.png"
   inkscape:export-xdpi="96"
   inkscape:export-ydpi="96"
   xml:space="preserve"
   xmlns:inkscape="http://www.inkscape.org/namespaces/inkscape"
   xmlns:sodipodi="http://sodipodi.sourceforge.net/DTD/sodipodi-0.dtd"
   xmlns="http://www.w3.org/2000/svg"
   xmlns:svg="http://www.w3.org/2000/svg"><sodipodi:namedview
     id="namedview7"
     pagecolor="#ffffff"
     bordercolor="#000000"
     borderopacity="0.25"
     inkscape:showpageshadow="2"
     inkscape:pageopacity="0.0"
     inkscape:pagecheckerboard="0"
     inkscape:deskcolor="#d1d1d1"
     inkscape:document-units="mm"
     showgrid="false"
     inkscape:zoom="2.1543544"
     inkscape:cx="196.34653"
     inkscape:cy="125.32757"
     inkscape:window-width="2560"
     inkscape:window-height="1009"
     inkscape:window-x="1912"
     inkscape:window-y="-8"
     inkscape:window-maximized="1"
     inkscape:current-layer="layer5" /><defs
     id="defs2"><marker
       style="overflow:visible"
       id="RoundedArrow"
       refX="0"
       refY="0"
       orient="auto-start-reverse"
       inkscape:stockid="RoundedArrow"
       markerWidth="6.1347523"
       markerHeight="5.9304953"
       viewBox="0 0 6.1347524 5.9304951"
       inkscape:isstock="true"
       inkscape:collect="always"
       preserveAspectRatio="xMidYMid"><path
         transform="scale(0.7)"
         d="m -0.21114562,-4.1055728 6.42229122,3.21114561 a 1,1 90 0 1 0,1.78885438 L -0.21114562,4.1055728 A 1.236068,1.236068 31.717474 0 1 -2,3 v -6 a 1.236068,1.236068 148.28253 0 1 1.78885438,-1.1055728 z"
         style="fill:context-stroke;fill-rule:evenodd;stroke:none"
         id="path1367" /></marker></defs><g
     inkscape:label="Stop"
     inkscape:groupmode="layer"
     id="layer1"
     style="display:none"><path
       id="path512"
       style="fill:#ff0000;stroke:#ffffff;stroke-width:5.29167;stroke-linecap:round;stroke-dasharray:none;stroke-opacity:0.993103"
       d="m 51.049371,42.7317 c -2.29007,3.481725 -14.89638,10.913912 -18.91929,10.923058 -4.022909,0.0091 -16.979247,-8.018572 -18.919294,-10.923058 -1.940047,-2.904486 -1.676006,-18.610019 1e-6,-21.846118 1.676007,-3.236099 15.567284,-10.800247 18.919293,-10.9230604 3.35201,-0.122813 17.3661,8.0554014 18.91929,10.9230604 1.55319,2.867659 2.29007,18.364393 0,21.846118 z"
       sodipodi:nodetypes="zzzzzzz" /></g><g
     inkscape:label="Play"
     inkscape:groupmode="layer"
     id="g510"
     style="display:none"><path
       id="path6213"
       style="fill:#7fff2a;stroke-width:2.98299;stroke-linecap:round"
       inkscape:transform-center-x="-0.51086318"
       inkscape:transform-center-y="-0.30833799"
       d="M 57.906805,34.105898 C 57.837997,40.441664 22.306741,62.416974 16.333606,58.471495 10.360472,54.526017 9.4559828,14.065012 16.018979,10.285251 22.581975,6.5054898 57.975613,27.770133 57.906805,34.105898 Z"
       sodipodi:nodetypes="zzzz" /><circle
       style="display:none;fill:#e6e6e6;fill-opacity:1;stroke:#666666;stroke-width:1.5;stroke-linecap:round;stroke-dasharray:none;stroke-opacity:1"
       id="path6270"
       cx="42.617344"
       cy="45.671715"
       r="9.7985449" /><path
       style="display:none;fill:#e6e6e6;fill-opacity:1;stroke:#666666;stroke-width:1.5;stroke-linecap:round;stroke-dasharray:none;stroke-opacity:1"
       d="m 43.146509,41.858779 -0.173683,5.38421 -4.515789,-1.21579"
       id="path6430" /><path
       style="display:inline;fill:#999999;fill-opacity:1;stroke:#999999;stroke-width:2.5;stroke-linecap:round;stroke-dasharray:none;stroke-opacity:1"
       d="m 36.843985,51.151733 c 16.702606,-0.36844 16.702606,-0.36844 16.702606,-0.36844"
       id="path6432-9" /><path
       style="fill:#999999;fill-opacity:1;stroke:#999999;stroke-width:1;stroke-linecap:round;stroke-miterlimit:3.7;stroke-dasharray:none;stroke-opacity:1;marker-end:url(#RoundedArrow)"
       d="m 45.68654,33.773653 0.122814,11.667263"
       id="path7135"
       sodipodi:nodetypes="cc" /></g><g
     inkscape:label="Manual"
     inkscape:groupmode="layer"
     id="g1120"
     style="display:none"><rect
       style="fill:#3a3a3a;fill-opacity:1;stroke:#383838;stroke-width:1.32292;stroke-linecap:round;stroke-dasharray:none;stroke-opacity:1"
       id="rect1174"
       width="28.762177"
       height="45.096344"
       x="19.331158"
       y="13.80456"
       ry="5"
       rx="5" /><path
       style="fill:#bfbfbf;fill-opacity:1;stroke:#ffffff;stroke-width:1.32292;stroke-linecap:round;stroke-dasharray:none;stroke-opacity:0.993103"
       d="M 24.931096,21.860764 H 42.616209"
       id="path1397" /><path
       style="fill:#bfbfbf;fill-opacity:1;stroke:#ffffff;stroke-width:0.849184;stroke-linecap:round;stroke-dasharray:none;stroke-opacity:0.993103"
       d="m 24.542182,25.422349 h 7.286932"
       id="path1397-7" /><path
       style="fill:#bfbfbf;fill-opacity:1;stroke:#ffffff;stroke-width:1.11919;stroke-linecap:round;stroke-dasharray:none;stroke-opacity:0.993103"
       d="M 24.865863,28.922528 H 37.523284"
       id="path1397-1" /><path
       style="fill:#bfbfbf;fill-opacity:1;stroke:#ffffff;stroke-width:0.961589;stroke-linecap:round;stroke-dasharray:none;stroke-opacity:0.993103"
       d="m 24.741923,32.484113 h 9.343715"
       id="path1397-7-2" /><path
       style="fill:#bfbfbf;fill-opacity:1;stroke:#ffffff;stroke-width:1.32292;stroke-linecap:round;stroke-dasharray:none;stroke-opacity:0.993103"
       d="M 25.053909,36.291325 H 42.739022"
       id="path1397-1-3" /><path
       style="fill:#bfbfbf;fill-opacity:1;stroke:#ffffff;stroke-width:1.32292;stroke-linecap:round;stroke-dasharray:none;stroke-opacity:0.993103"
       d="M 25.05391,49.309533 H 42.739023"
       id="path1397-1-3-7" /><path
       style="fill:#bfbfbf;fill-opacity:1;stroke:#ffffff;stroke-width:0.990551;stroke-linecap:round;stroke-dasharray:none;stroke-opacity:0.993103"
       d="m 24.763293,52.871118 h 9.915044"
       id="path1397-7-2-6-6" /><rect
       style="fill:#ffffff;fill-opacity:1;stroke:#ffffff;stroke-width:1.32292;stroke-linecap:round;stroke-dasharray:none;stroke-opacity:0.993103"
       id="rect1502"
       width="10.684755"
       height="6.5091038"
       x="25.053909"
       y="39.914314"
       rx="1"
       ry="1" /></g><g
     inkscape:label="Challenges"
     inkscape:groupmode="layer"
     id="g1574"
     style="display:none"><circle
       style="fill:#383838;fill-opacity:1;stroke:#ffffff;stroke-width:1.32292;stroke-linecap:round;stroke-dasharray:none;stroke-opacity:0.993103"
       id="path1628"
       cx="36.475544"
       cy="33.282398"
       r="19.77294" /><text
       xml:space="preserve"
       style="font-size:42.9884px;font-family:Arial;-inkscape-font-specification:Arial;fill:#ffffff;fill-opacity:1;stroke:#383838;stroke-width:3.11961;stroke-linecap:round;stroke-dasharray:none;stroke-opacity:1"
       x="32.32011"
       y="35.633255"
       id="text3792"
       transform="rotate(19.600607)"><tspan
         sodipodi:role="line"
         id="tspan3790"
         style="fill:#ffffff;stroke-width:3.11961;stroke-dasharray:none"
         x="32.32011"
         y="35.633255">?</tspan></text></g><g
     inkscape:groupmode="layer"
     id="layer2"
     inkscape:label="Eyes"
     style="display:none"><rect
       style="fill:#ffffff;fill-opacity:1;stroke:none;stroke-width:3.24514;stroke-linecap:round;stroke-dasharray:none;stroke-opacity:1"
       id="rect3949"
       width="67.20417"
       height="67.20417"
       x="0"
       y="0" /><path
       id="path4025"
       style="fill:#000000;fill-opacity:1;stroke:none;stroke-width:3.499;stroke-linecap:round;stroke-dasharray:none;stroke-opacity:1"
       d="m 25.628753,25.644117 a 4.6276033,7.0631843 0 0 0 -4.627427,7.063094 4.6276033,7.0631843 0 0 0 4.627427,7.063095 4.6276033,7.0631843 0 0 0 4.627427,-7.063095 4.6276033,7.0631843 0 0 0 -0.136643,-1.701893 2.9226969,2.9226969 0 0 1 -1.324758,0.321795 2.9226969,2.9226969 0 0 1 -2.922801,-2.9228 2.9226969,2.9226969 0 0 1 1.240039,-2.38716 4.6276033,7.0631843 0 0 0 -1.483264,-0.373036 z" /><path
       id="path4025-8"
       style="fill:#000000;fill-opacity:1;stroke:none;stroke-width:3.499;stroke-linecap:round;stroke-dasharray:none;stroke-opacity:1"
       d="m 38.050055,25.238198 a 4.6276033,7.0631843 0 0 0 -4.627427,7.063093 4.6276033,7.0631843 0 0 0 4.627427,7.063095 4.6276033,7.0631843 0 0 0 4.627427,-7.063095 4.6276033,7.0631843 0 0 0 -0.136643,-1.701892 2.9226969,2.9226969 0 0 1 -1.324757,0.321795 2.9226969,2.9226969 0 0 1 -2.922802,-2.9228 2.9226969,2.9226969 0 0 1 1.240039,-2.38716 4.6276033,7.0631843 0 0 0 -1.483264,-0.373036 z" /></g><g
     inkscape:groupmode="layer"
     id="layer3"
     inkscape:label="FloorTile"
     style="display:none"><rect
       style="fill:#a05a2c;fill-opacity:1;stroke:none;stroke-width:4.30302;stroke-linecap:round;stroke-dasharray:none;stroke-opacity:1"
       id="rect4687"
       width="67.20417"
       height="67.20417"
       x="-1.110223e-16"
       y="0" /><path
       style="fill:#44aa00;fill-opacity:1;stroke:none;stroke-width:1.82358;stroke-linecap:round;stroke-dasharray:none;stroke-opacity:1"
       d="m 57.619555,61.769536 3.671314,-7.876497 c 0,0 -4.186586,-5.863613 -4.315404,-6.301195 -0.128818,-0.437584 -1.739044,-7.438914 -2.447543,-7.26388 -0.708499,0.175032 -7.342628,3.850731 -7.342628,3.850731 l 2.962814,6.738779 c 0,0 6.376494,0.437583 5.861222,1.137716 -0.515273,0.700133 -3.928951,5.776097 -5.088313,5.163481 -1.159362,-0.612617 -1.996679,-3.150597 -2.769588,-4.025765 -0.772908,-0.875166 -1.416998,-6.388713 -2.962814,-3.675698 -1.545817,2.713016 -3.284861,3.938248 -3.091634,5.163481 0.193228,1.225234 2.189907,4.725897 2.189907,4.725897 0,0 6.827357,-1.575299 6.956174,-0.08751 0.128818,1.487781 0.257636,6.126162 0.257636,6.126162 0,0 2.705179,-0.612616 3.606905,-1.662816 0.901727,-1.050204 1.99668,-3.413153 1.99668,-3.413153 z"
       id="path4971-9" /><path
       id="rect4353-7"
       style="fill:#ffffff;fill-opacity:0.5;stroke:none;stroke-width:2.98299;stroke-linecap:round;stroke-dasharray:none;stroke-opacity:1"
       d="m 63.235415,2.6458333 c 0.732895,0 1.322917,0.5900216 1.322917,1.3229167 v 13.229167 c 0,0.732895 -0.590022,1.322916 -1.322917,1.322916 -0.732895,0 -1.322916,-0.590021 -1.322916,-1.322916 V 5.2916667 h -11.90625 c -0.732895,0 -1.322916,-0.5900216 -1.322916,-1.3229167 0,-0.7328951 0.590021,-1.3229167 1.322916,-1.3229167 z" /><path
       id="rect4353-7-2"
       style="fill:#ffffff;fill-opacity:0.5;stroke:none;stroke-width:2.98299;stroke-linecap:round;stroke-dasharray:none;stroke-opacity:1"
       d="m 63.235419,64.558333 c 0.73289,0 1.32291,-0.590022 1.32291,-1.322917 V 50.006249 c 0,-0.732895 -0.59002,-1.322916 -1.32291,-1.322916 -0.7329,0 -1.32292,0.590021 -1.32292,1.322916 v 11.90625 h -11.90625 c -0.73289,0 -1.32292,0.590022 -1.32292,1.322917 0,0.732895 0.59003,1.322917 1.32292,1.322917 z" /><path
       style="fill:#008000;fill-opacity:1;stroke:none;stroke-width:1.00126;stroke-linecap:round;stroke-dasharray:none;stroke-opacity:1"
       d="m 55.188956,39.542029 -1.025573,4.853262 -1.838957,1.489615 -1.485313,3.027282 -0.707291,1.777928 c 0,0 -3.112083,0.672728 -3.359635,0.528572 -0.247552,-0.144155 -2.899896,-2.931178 -2.899896,-2.931178 0,0 -1.202395,1.105199 -1.308489,1.297407 -0.106094,0.192208 -2.47552,2.402605 -2.581614,2.210396 -0.106094,-0.192208 -2.334062,-3.651958 -2.440156,-3.892219 -0.106093,-0.240261 0.106094,-4.709106 0.106094,-4.709106 0,0 2.616979,-2.114292 2.652344,-2.546761 0.03536,-0.432468 -0.424376,-3.844167 -0.424376,-3.844167 0,0 -1.237759,-3.411699 -1.485312,-3.651959 -0.247552,-0.240261 -0.77802,-2.162344 -0.77802,-2.49871 0,-0.336364 -1.096302,-1.489614 -0.884115,-1.922084 0.212188,-0.432468 3.147447,-3.411698 3.32427,-3.315594 0.176823,0.0961 2.475521,2.97923 2.475521,3.459751 0,0.480521 -0.601198,6.006512 -0.601198,6.006512 l 4.597395,2.210396 7.603384,-6.727293 c 0,0 -3.571822,-3.796115 -3.359635,-3.988324 0.212188,-0.192208 3.642552,-1.681823 3.890104,-1.393511 0.247552,0.288313 2.263332,3.315595 2.47552,3.603908 0.212187,0.288312 1.131666,6.631188 0.954844,6.67924 -0.176823,0.04805 -3.78401,-0.144155 -3.819375,0.240261 -0.03536,0.384417 0.141459,4.276636 0.141459,4.276636 z"
       id="path4915-7" /><path
       style="fill:#44aa00;fill-opacity:1;stroke:none;stroke-width:1.82358;stroke-linecap:round;stroke-dasharray:none;stroke-opacity:1"
       d="M 5.6363264,59.327516 1.9650119,51.451019 c 0,0 4.1865865,-5.863613 4.3154043,-6.301195 0.1288182,-0.437584 1.7390438,-7.438914 2.4475429,-7.26388 0.7084987,0.175032 7.3426279,3.850731 7.3426279,3.850731 l -2.962814,6.738779 c 0,0 -6.3764937,0.437583 -5.8612215,1.137716 0.5152725,0.700133 3.9289505,5.776097 5.0883125,5.163481 1.159362,-0.612617 1.996679,-3.150597 2.769588,-4.025765 0.772908,-0.875166 1.416998,-6.388713 2.962814,-3.675698 1.545817,2.713016 3.284861,3.938248 3.091634,5.163481 -0.193228,1.225234 -2.189907,4.725897 -2.189907,4.725897 0,0 -6.827357,-1.575299 -6.956174,-0.08751 -0.128818,1.487781 -0.257636,6.126162 -0.257636,6.126162 0,0 -2.705179,-0.612616 -3.6069053,-1.662816 C 7.2465515,60.290198 6.1515984,57.927249 6.1515984,57.927249 Z"
       id="path4971" /><path
       style="fill:#008000;fill-opacity:1;stroke:none;stroke-width:1.00126;stroke-linecap:round;stroke-dasharray:none;stroke-opacity:1"
       d="m 8.0669251,37.100009 1.0255727,4.853262 1.8389572,1.489615 1.485313,3.027282 0.707291,1.777928 c 0,0 3.112083,0.672728 3.359635,0.528572 0.247552,-0.144155 2.899896,-2.931178 2.899896,-2.931178 0,0 1.202395,1.105199 1.308489,1.297407 0.106094,0.192208 2.47552,2.402605 2.581614,2.210396 0.106094,-0.192208 2.334062,-3.651958 2.440156,-3.892219 0.106093,-0.240261 -0.106094,-4.709106 -0.106094,-4.709106 0,0 -2.616979,-2.114292 -2.652344,-2.546761 -0.03536,-0.432468 0.424376,-3.844167 0.424376,-3.844167 0,0 1.237759,-3.411699 1.485312,-3.651959 0.247552,-0.240261 0.77802,-2.162344 0.77802,-2.49871 0,-0.336364 1.096302,-1.489614 0.884115,-1.922084 -0.212188,-0.432468 -3.147447,-3.411698 -3.32427,-3.315594 -0.176823,0.0961 -2.475521,2.97923 -2.475521,3.459751 0,0.480521 0.601198,6.006512 0.601198,6.006512 l -4.597395,2.210396 -7.6033837,-6.727293 c 0,0 3.5718217,-3.796115 3.3596347,-3.988324 -0.212188,-0.192208 -3.6425516,-1.681823 -3.8901036,-1.393511 -0.2475519,0.288313 -2.2633328,3.315595 -2.4755203,3.603908 -0.2121874,0.288312 -1.1316665,6.631188 -0.9548436,6.67924 0.176823,0.04805 3.7840099,-0.144155 3.8193744,0.240261 0.035363,0.384417 -0.1414585,4.276636 -0.1414585,4.276636 z"
       id="path4915" /><path
       style="fill:#008000;fill-opacity:1;stroke:none;stroke-width:1.00126;stroke-linecap:round;stroke-dasharray:none;stroke-opacity:1"
       d="m 11.240969,7.2984028 -4.0181843,2.9086342 -0.614153,2.285505 -2.162892,2.586985 -1.3373112,1.368534 c 0,0 0.6494672,3.117021 0.8817532,3.284669 0.232286,0.167648 3.856434,1.459151 3.856434,1.459151 0,0 -0.521468,1.547673 -0.654005,1.722697 -0.132538,0.175025 -1.189836,3.238055 -0.971103,3.256922 0.218732,0.01887 4.2852113,0.649311 4.5478533,0.648659 0.262642,-6.54e-4 4.259968,-2.009878 4.259968,-2.009878 0,0 0.86892,-3.250198 1.249734,-3.458191 0.380814,-0.207988 3.685095,-1.173792 3.685095,-1.173792 0,0 3.620328,-0.254866 3.940433,-0.126256 0.320105,0.128608 2.291944,-0.167451 2.599307,-0.30409 0.307361,-0.136638 1.806512,0.396663 2.115498,0.02709 0.308984,-0.369569 1.838971,-4.261958 1.679324,-4.384496 -0.159643,-0.122534 -3.727952,-1.051844 -4.167041,-0.856647 -0.439088,0.195197 -5.244384,2.989324 -5.244384,2.989324 l -3.887358,-3.303081 3.058591,-9.6805438 c 0,0 4.919741,1.7217856 5.009182,1.4498152 C 25.15715,5.7174426 25.12484,1.9777501 24.76083,1.8686612 24.396816,1.7595727 20.81171,1.1473431 20.462062,1.0705694 20.112415,0.99379639 13.94294,2.7302 13.97086,2.9112962 c 0.02792,0.1810954 1.668865,3.3991768 1.33196,3.5876486 -0.336907,0.188469 -3.965347,1.607993 -3.965347,1.607993 z"
       id="path4915-2" /><path
       style="fill:#44aa00;fill-opacity:1;stroke:none;stroke-width:1.82358;stroke-linecap:round;stroke-dasharray:none;stroke-opacity:1"
       d="M 11.272327,32.417161 7.6010121,24.540664 c 0,0 4.1865869,-5.863613 4.3154039,-6.301195 0.128819,-0.437584 1.739044,-7.438914 2.447543,-7.26388 0.708499,0.175032 7.342628,3.850731 7.342628,3.850731 l -2.962814,6.738779 c 0,0 -6.376494,0.437583 -5.861221,1.137716 0.515272,0.700133 3.92895,5.776097 5.088312,5.163481 1.159362,-0.612617 1.996679,-3.150597 2.769588,-4.025765 0.772908,-0.875166 1.416998,-6.388713 2.962814,-3.675698 1.545817,2.713016 3.284861,3.938248 3.091634,5.163481 -0.193228,1.225234 -2.189907,4.725897 -2.189907,4.725897 0,0 -6.827357,-1.575299 -6.956174,-0.08751 -0.128818,1.487781 -0.257636,6.126162 -0.257636,6.126162 0,0 -2.705179,-0.612616 -3.606905,-1.662816 -0.901726,-1.050204 -1.996679,-3.413153 -1.996679,-3.413153 z"
       id="path4971-3" /><path
       style="fill:#338000;fill-opacity:1;stroke:none;stroke-width:1.82358;stroke-linecap:round;stroke-dasharray:none;stroke-opacity:1"
       d="m 20.82947,53.59679 -3.671314,-7.876497 c 0,0 4.186586,-5.863612 4.315404,-6.301195 0.128818,-0.437583 1.739044,-7.438913 2.447543,-7.26388 0.708498,0.175033 7.342628,3.850732 7.342628,3.850732 l -2.962815,6.738779 c 0,0 -6.376493,0.437582 -5.861221,1.137716 0.515273,0.700133 3.928951,5.776097 5.088312,5.163481 1.159363,-0.612617 1.99668,-3.150598 2.769589,-4.025766 0.772908,-0.875165 1.416997,-6.388712 2.962814,-3.675698 1.545816,2.713017 3.284861,3.938248 3.091633,5.163482 -0.193227,1.225233 -2.189906,4.725896 -2.189906,4.725896 0,0 -6.827357,-1.575298 -6.956175,-0.08751 -0.128817,1.487782 -0.257635,6.126163 -0.257635,6.126163 0,0 -2.705179,-0.612616 -3.606906,-1.662817 -0.901726,-1.050198 -1.996679,-3.413147 -1.996679,-3.413147 z"
       id="path4971-8" /><path
       style="fill:#338000;fill-opacity:1;stroke:none;stroke-width:1.82358;stroke-linecap:round;stroke-dasharray:none;stroke-opacity:1"
       d="m 42.426411,56.03881 3.671314,-7.876497 c 0,0 -4.186586,-5.863612 -4.315404,-6.301195 -0.128818,-0.437583 -1.739044,-7.438913 -2.447543,-7.26388 -0.708498,0.175033 -7.342628,3.850732 -7.342628,3.850732 l 2.962815,6.738779 c 0,0 6.376493,0.437582 5.861221,1.137716 -0.515273,0.700133 -3.928951,5.776097 -5.088312,5.163481 -1.159363,-0.612617 -1.99668,-3.150598 -2.769589,-4.025766 -0.772908,-0.875165 -1.416997,-6.388712 -2.962814,-3.675698 -1.545816,2.713017 -3.284861,3.938248 -3.091633,5.163482 0.193227,1.225233 2.189906,4.725896 2.189906,4.725896 0,0 6.827357,-1.575298 6.956175,-0.08751 0.128817,1.487782 0.257635,6.126163 0.257635,6.126163 0,0 2.705179,-0.612616 3.606906,-1.662817 0.901726,-1.050198 1.996679,-3.413147 1.996679,-3.413147 z"
       id="path4971-8-4" /><path
       style="fill:#44aa00;fill-opacity:1;stroke:none;stroke-width:1.82358;stroke-linecap:round;stroke-dasharray:none;stroke-opacity:1"
       d="m 54.794849,48.628515 3.671314,-7.876497 c 0,0 -4.186586,-5.863613 -4.315404,-6.301195 -0.128818,-0.437584 -1.739044,-7.438914 -2.447543,-7.26388 -0.708499,0.175032 -7.342628,3.850731 -7.342628,3.850731 l 2.962814,6.738779 c 0,0 6.376494,0.437583 5.861222,1.137716 -0.515273,0.700133 -3.928951,5.776097 -5.088313,5.163481 -1.159362,-0.612617 -1.996679,-3.150597 -2.769588,-4.025765 -0.772908,-0.875166 -1.416998,-6.388713 -2.962814,-3.675698 -1.545817,2.713016 -3.284861,3.938248 -3.091634,5.163481 0.193228,1.225234 2.189907,4.725897 2.189907,4.725897 0,0 6.827357,-1.575299 6.956174,-0.08751 0.128818,1.487781 0.257636,6.126162 0.257636,6.126162 0,0 2.705179,-0.612616 3.606905,-1.662816 0.901727,-1.050204 1.99668,-3.413153 1.99668,-3.413153 z"
       id="path4971-9-9" /><path
       style="fill:#008000;fill-opacity:1;stroke:none;stroke-width:1.00126;stroke-linecap:round;stroke-dasharray:none;stroke-opacity:1"
       d="m 52.36425,26.401008 -1.025573,4.853262 -1.838957,1.489615 -1.485313,3.027282 -0.707291,1.777928 c 0,0 -3.112083,0.672728 -3.359635,0.528572 -0.247552,-0.144155 -2.899896,-2.931178 -2.899896,-2.931178 0,0 -1.202395,1.105199 -1.308489,1.297407 -0.106094,0.192208 -2.47552,2.402605 -2.581614,2.210396 -0.106094,-0.192208 -2.334062,-3.651958 -2.440156,-3.892219 -0.106093,-0.240261 0.106094,-4.709106 0.106094,-4.709106 0,0 2.616979,-2.114292 2.652344,-2.546761 0.03536,-0.432468 -0.424376,-3.844167 -0.424376,-3.844167 0,0 -1.237759,-3.411699 -1.485312,-3.651959 -0.247552,-0.240261 -0.77802,-2.162344 -0.77802,-2.49871 0,-0.336364 -1.096302,-1.489614 -0.884115,-1.922084 0.212188,-0.432468 3.147447,-3.411698 3.32427,-3.315594 0.176823,0.0961 2.475521,2.97923 2.475521,3.459751 0,0.480521 -0.601198,6.006512 -0.601198,6.006512 l 4.597395,2.210396 7.603384,-6.727293 c 0,0 -3.571822,-3.796115 -3.359635,-3.988324 0.212188,-0.192208 3.642552,-1.681823 3.890104,-1.393511 0.247552,0.288313 2.263332,3.315595 2.47552,3.603908 0.212187,0.288312 1.131666,6.631188 0.954844,6.67924 -0.176823,0.04805 -3.78401,-0.144155 -3.819375,0.240261 -0.03536,0.384417 0.141459,4.276636 0.141459,4.276636 z"
       id="path4915-7-9" /><path
       style="fill:#338000;fill-opacity:1;stroke:none;stroke-width:1.82358;stroke-linecap:round;stroke-dasharray:none;stroke-opacity:1"
       d="m 39.601705,42.897789 3.671314,-7.876497 c 0,0 -4.186586,-5.863612 -4.315404,-6.301195 -0.128818,-0.437583 -1.739044,-7.438913 -2.447543,-7.26388 -0.708498,0.175033 -7.342628,3.850732 -7.342628,3.850732 l 2.962815,6.738779 c 0,0 6.376493,0.437582 5.861221,1.137716 -0.515273,0.700133 -3.928951,5.776097 -5.088312,5.163481 -1.159363,-0.612617 -1.99668,-3.150598 -2.769589,-4.025766 -0.772908,-0.875165 -1.416997,-6.388712 -2.962814,-3.675698 -1.545816,2.713017 -3.284861,3.938248 -3.091633,5.163482 0.193227,1.225233 2.189906,4.725896 2.189906,4.725896 0,0 6.827357,-1.575298 6.956175,-0.08751 0.128817,1.487782 0.257635,6.126163 0.257635,6.126163 0,0 2.705179,-0.612616 3.606906,-1.662817 0.901726,-1.050198 1.996679,-3.413147 1.996679,-3.413147 z"
       id="path4971-8-4-4" /><path
       style="fill:#44aa00;fill-opacity:1;stroke:none;stroke-width:1.90354;stroke-linecap:round;stroke-dasharray:none;stroke-opacity:1"
       d="m 66.022306,31.172615 -4.659845,6.977368 c 0,0 -6.743206,-2.647578 -7.159549,-2.637075 -0.416344,0.0105 -6.864498,0.6895 -7.057584,-0.176014 -0.193089,-0.865513 -0.346913,-9.698255 -0.346913,-9.698255 l 6.874929,0.947741 c 0,0 3.372582,7.069782 3.697392,6.23546 0.32481,-0.834323 2.832068,-6.518196 1.785941,-7.612979 -1.046126,-1.094783 -3.503582,-1.136056 -4.580084,-1.698991 -1.076498,-0.562934 -5.859176,0.678892 -4.387201,-2.043158 1.471978,-2.72205 1.644197,-5.131019 2.730719,-5.350208 1.086522,-0.219189 4.874416,0.791676 4.874416,0.791676 0,0 1.951127,8.300576 3.220406,7.9145 1.269277,-0.386075 5.097362,-1.898865 5.097362,-1.898865 0,0 0.782476,3.284774 0.356213,4.682243 -0.426261,1.397468 -1.827263,3.483379 -1.827263,3.483379 z"
       id="path4971-2" /><path
       style="fill:#008000;fill-opacity:1;stroke:none;stroke-width:1.04516;stroke-linecap:round;stroke-dasharray:none;stroke-opacity:1"
       d="m 36.6263,37.963661 3.456376,-2.897869 0.339666,-2.616745 1.755842,-2.765872 1.109298,-1.437371 c 0,0 -0.92619,-3.767402 -1.160404,-3.996391 -0.234213,-0.22899 -3.752756,-2.23811 -3.752756,-2.23811 0,0 0.328661,-1.757875 0.434565,-1.946845 0.105904,-0.188971 0.779959,-3.664645 0.573653,-3.71614 -0.206305,-0.05149 -4.070411,-1.339104 -4.315743,-1.373414 -0.245332,-0.03431 -3.774371,1.8043 -3.774371,1.8043 0,0 -0.478867,3.721848 -0.813369,3.916586 -0.334504,0.194735 -3.322903,0.893818 -3.322903,0.893818 0,0 -3.356539,-0.182622 -3.668806,-0.377243 -0.312266,-0.194621 -2.124319,-0.108409 -2.397503,0.01188 -0.273184,0.120291 -1.728555,-0.709687 -1.97939,-0.314563 -0.250834,0.395125 -1.281572,4.786989 -1.119852,4.953008 0.161721,0.166018 3.59098,1.739995 3.981242,1.568151 0.390263,-0.171845 4.593808,-2.829365 4.593808,-2.829365 l 3.970577,4.419596 -1.865949,11.022475 c 0,0 -4.773167,-2.690264 -4.828871,-2.381061 -0.0557,0.309203 0.357643,4.729437 0.708936,4.906873 0.351293,0.177437 3.763761,1.37924 4.098321,1.516598 0.334559,0.137359 5.921095,-1.088962 5.876453,-1.306534 -0.04465,-0.217571 -1.907574,-4.236741 -1.612098,-4.414293 0.295477,-0.177551 3.54027,-1.369098 3.54027,-1.369098 z"
       id="path4915-5" /><path
       style="fill:#338000;fill-opacity:1;stroke:none;stroke-width:1.90354;stroke-linecap:round;stroke-dasharray:none;stroke-opacity:1"
       d="m 54.179008,16.004146 -4.659846,6.977368 c 0,0 -6.743207,-2.647578 -7.159549,-2.637075 -0.416344,0.0105 -6.864497,0.6895 -7.057584,-0.176014 -0.193088,-0.865514 -0.346912,-9.698256 -0.346912,-9.698256 l 6.874928,0.947742 c 0,0 3.372582,7.069781 3.697393,6.235459 0.324809,-0.834323 2.832066,-6.518195 1.785941,-7.612978 -1.046127,-1.0947836 -3.503583,-1.1360556 -4.580084,-1.6989916 -1.0765,-0.562934 -5.859177,0.678893 -4.387201,-2.0431573 1.471977,-2.7220508 1.644196,-5.131019 2.730718,-5.35020844 1.086522,-0.2191888 4.874416,0.79167634 4.874416,0.79167634 0,0 1.951126,8.300575 3.220406,7.9145004 1.269277,-0.386075 5.097362,-1.898866 5.097362,-1.898866 0,0 0.782475,3.2847736 0.356213,4.6822426 -0.426261,1.397468 -1.827263,3.483379 -1.827263,3.483379 z"
       id="path4971-8-1" /><path
       id="rect4353-74"
       style="fill:#ffffff;fill-opacity:0.5;stroke:none;stroke-width:2.98299;stroke-linecap:round;stroke-dasharray:none;stroke-opacity:1"
       d="m 3.9687503,64.558333 c -0.732895,0 -1.322917,-0.590022 -1.322917,-1.322917 V 50.006249 c 0,-0.732895 0.590022,-1.322916 1.322917,-1.322916 0.732895,0 1.322917,0.590021 1.322917,1.322916 v 11.90625 H 17.197917 c 0.732895,0 1.322916,0.590022 1.322916,1.322917 0,0.732895 -0.590021,1.322917 -1.322916,1.322917 z" /><path
       id="rect4353"
       style="fill:#ffffff;fill-opacity:0.5;stroke:none;stroke-width:2.98299;stroke-linecap:round;stroke-dasharray:none;stroke-opacity:1"
       d="m 3.96875,2.6458333 c -0.7328951,0 -1.3229167,0.5900216 -1.3229167,1.3229167 v 13.229167 c 0,0.732895 0.5900216,1.322916 1.3229167,1.322916 0.7328951,0 1.3229167,-0.590021 1.3229167,-1.322916 V 5.2916667 H 17.197917 c 0.732895,0 1.322916,-0.5900216 1.322916,-1.3229167 0,-0.7328951 -0.590021,-1.3229167 -1.322916,-1.3229167 z" /></g><g
     inkscape:groupmode="layer"
     id="layer4"
     inkscape:label="Logo"
     style="display:none"><rect
       style="display:inline;fill:#f2f2f2;fill-opacity:1;stroke:none;stroke-width:3.24514;stroke-linecap:round;stroke-dasharray:none;stroke-opacity:1"
       id="rect3949-7"
       width="67.20417"
       height="67.204002"
       x="0"
       y="0"
       rx="20"
       ry="20" /><path
       id="rect5997"
       style="fill:#ffffff;stroke-width:2.51767;stroke-linecap:round"
       d="m -0.12281292,17.19386 c 0,0 7.57842332,-5.771909 17.34737692,-5.925741 9.768954,-0.153832 23.12561,0.0011 33.712246,0.18422 10.586636,0.183162 16.36487,6.10996 16.36487,6.10996 l 0.245627,14.719029 H -0.12281292 Z"
       sodipodi:nodetypes="czzcccc" /><path
       id="path4025-6"
       style="display:inline;fill:#000000;fill-opacity:1;stroke:none;stroke-width:3.499;stroke-linecap:round;stroke-dasharray:none;stroke-opacity:1"
       d="m 22.558421,15.204988 a 4.6276033,7.0631843 0 0 0 -4.627427,7.063094 4.6276033,7.0631843 0 0 0 4.627427,7.063095 4.6276033,7.0631843 0 0 0 4.627427,-7.063095 4.6276033,7.0631843 0 0 0 -0.136643,-1.701893 2.9226969,2.9226969 0 0 1 -1.324758,0.321795 2.9226969,2.9226969 0 0 1 -2.922801,-2.9228 2.9226969,2.9226969 0 0 1 1.240039,-2.38716 4.6276033,7.0631843 0 0 0 -1.483264,-0.373036 z" /><path
       id="path4025-8-3"
       style="display:inline;fill:#000000;fill-opacity:1;stroke:none;stroke-width:3.499;stroke-linecap:round;stroke-dasharray:none;stroke-opacity:1"
       d="m 45.050412,15.290322 a 4.6276033,7.0631843 0 0 0 -4.627427,7.063093 4.6276033,7.0631843 0 0 0 4.627427,7.063095 4.6276033,7.0631843 0 0 0 4.627427,-7.063095 4.6276033,7.0631843 0 0 0 -0.136643,-1.701892 2.9226969,2.9226969 0 0 1 -1.324757,0.321795 2.9226969,2.9226969 0 0 1 -2.922802,-2.9228 2.9226969,2.9226969 0 0 1 1.240039,-2.38716 4.6276033,7.0631843 0 0 0 -1.483264,-0.373036 z" /><rect
       style="fill:#333333;fill-opacity:1;stroke:none;stroke-width:2.98299;stroke-linecap:round;stroke-dasharray:none;stroke-opacity:1"
       id="rect5804"
       width="21.001072"
       height="4.1756516"
       x="17.369919"
       y="51.096481"
       rx="5"
       ry="4.1760001"
       transform="rotate(-21.61547)" /><rect
       style="display:inline;fill:#333333;fill-opacity:1;stroke:none;stroke-width:2.98299;stroke-linecap:round;stroke-dasharray:none;stroke-opacity:1"
       id="rect5804-1"
       width="21.001072"
       height="4.1756516"
       x="15.600094"
       y="57.396675"
       rx="5"
       ry="4.1760001"
       transform="rotate(-21.61547)" /><rect
       style="display:inline;fill:#333333;fill-opacity:1;stroke:none;stroke-width:2.98299;stroke-linecap:round;stroke-dasharray:none;stroke-opacity:1"
       id="rect5804-7"
       width="21.001072"
       height="4.1756516"
       x="13.483965"
       y="64.154114"
       rx="5"
       ry="4.1760001"
       transform="rotate(-21.61547)" /><rect
       style="display:inline;fill:#333333;fill-opacity:1;stroke:none;stroke-width:2.98299;stroke-linecap:round;stroke-dasharray:none;stroke-opacity:1"
       id="rect5804-5"
       width="21.001072"
       height="4.1756516"
       x="-45.663429"
       y="26.351305"
       rx="5"
       ry="4.1760001"
       transform="matrix(-0.92967706,-0.36837558,-0.36837558,0.92967706,0,0)" /><rect
       style="display:inline;fill:#333333;fill-opacity:1;stroke:none;stroke-width:2.98299;stroke-linecap:round;stroke-dasharray:none;stroke-opacity:1"
       id="rect5804-1-2"
       width="21.001072"
       height="4.1756516"
       x="-47.433258"
       y="32.651501"
       rx="5"
       ry="4.1760001"
       transform="matrix(-0.92967706,-0.36837558,-0.36837558,0.92967706,0,0)" /><rect
       style="display:inline;fill:#333333;fill-opacity:1;stroke:none;stroke-width:2.98299;stroke-linecap:round;stroke-dasharray:none;stroke-opacity:1"
       id="rect5804-7-9"
       width="21.001072"
       height="4.1756516"
       x="-49.549385"
       y="39.408939"
       rx="5"
       ry="4.1760001"
       transform="matrix(-0.92967706,-0.36837558,-0.36837558,0.92967706,0,0)" /></g><g
     inkscape:groupmode="layer"
     id="layer5"
     inkscape:label="House"><rect
       style="fill:#f2f2f2;fill-opacity:1;stroke:#999999;stroke-width:3.40118;stroke-linecap:round;stroke-miterlimit:3.7;stroke-dasharray:none;stroke-opacity:1"
       id="rect7275"
       width="33.718899"
       height="20.839426"
       x="17.231119"
       y="31.723087"
       rx="5"
       ry="5" /><path
       style="fill:none;fill-opacity:1;stroke:#999999;stroke-width:5.29166667;stroke-linecap:round;stroke-miterlimit:3.7;stroke-dasharray:none;stroke-opacity:1"
       d="M 7.7372368,27.387362 33.528026,7.86005 60.546948,27.387362"
       id="path7339" /></g></svg>
